#!OML:ASF E:\Mandelcareful walks\Project 1\Capture day 1\Session 1\Subject1.ASF
:FULLY-SPECIFIED
:DEGREES
725
root 12.7983 11.3508 -1.86175 -137.91 -66.2187 170.222
lowerback 44.2599 4.92913 -2.8773
upperback 10.1786 2.89529 0.308069
thorax -9.36862 0.625402 0.655249
lowerneck -38.4924 -3.22608 -2.60421
upperneck 23.1951 -3.39794 1.06872
head 14.2513 -1.51962 0.102292
rclavicle 3.49861e-014 -2.16675e-014
rhumerus 61.6341 11.4338 -73.3698
rradius 27.1361
rwrist -28.5074
rhand -17.5441 -35.963
rfingers 7.12502
rthumb 8.71034 -65.7632
lclavicle 3.49861e-014 -2.16675e-014
lhumerus 63.1352 -32.4796 48.0719
lradius 38.8719
lwrist 44.4656
lhand -42.2303 -13.276
lfingers 7.12502
lthumb -15.117 16.1519
rfemur -111.264 -9.45226 23.0826
rtibia 106.307
rfoot -23.4144 4.44051
rtoes 5.78161
lfemur -88.1838 39.9466 -15.7439
ltibia 100.004
lfoot -28.3571 -3.30793
ltoes -23.3903
726
root 12.8102 11.3007 -1.95763 -137.428 -66.3029 169.584
lowerback 44.3817 4.8866 -3.04317
upperback 10.1749 2.76547 0.31096
thorax -9.40796 0.5669 0.79671
lowerneck -38.3809 -2.96223 -2.23113
upperneck 22.7797 -3.0762 0.569277
head 14.0284 -1.43283 -0.0886255
rclavicle 6.36111e-015 6.57977e-014
rhumerus 61.8806 11.8075 -72.5679
rradius 27.4051
rwrist -29.1023
rhand -17.6289 -35.8059
rfingers 7.12502
rthumb 8.62843 -65.6096
lclavicle 6.36111e-015 6.57977e-014
lhumerus 63.8569 -31.693 48.8745
lradius 37.3486
lwrist 43.4414
lhand -42.2931 -13.0769
lfingers 7.12502
lthumb -15.1775 16.3465
rfemur -111.531 -9.35918 23.362
rtibia 107.01
rfoot -23.6637 4.3168
rtoes 5.39045
lfemur -88.031 40.3026 -15.5235
ltibia 99.9734
lfoot -28.0933 -3.70151
ltoes -23.017
727
root 12.8225 11.247 -2.05142 -137.085 -66.4254 169.159
lowerback 44.3572 4.82745 -3.13113
upperback 10.2463 2.6506 0.314815
thorax -9.31967 0.512166 0.897215
lowerneck -38.5286 -2.72196 -1.91999
upperneck 22.4251 -2.80171 0.230893
head 13.8854 -1.34387 -0.215702
rclavicle 3.81667e-014 9.44227e-014
rhumerus 62.1677 12.0976 -71.9709
rradius 27.7263
rwrist -29.4505
rhand -17.9 -35.4538
rfingers 7.12502
rthumb 8.36686 -65.2681
lclavicle 3.81667e-014 9.44227e-014
lhumerus 64.6382 -30.8137 49.7193
lradius 35.8565
lwrist 42.4873
lhand -41.9545 -12.5369
lfingers 7.12502
lthumb -14.8514 16.9108
rfemur -111.862 -9.22604 23.7222
rtibia 107.736
rfoot -23.8639 4.06627
rtoes 5.28215
lfemur -87.9222 40.7005 -15.2426
ltibia 99.9353
lfoot -27.913 -4.18786
ltoes -22.2342
728
root 12.8351 11.1834 -2.14095 -136.512 -66.5615 168.528
lowerback 44.2819 4.7557 -3.21153
upperback 10.3026 2.53219 0.307446
thorax -9.23355 0.458879 0.98362
lowerneck -38.5122 -2.55138 -1.73538
upperneck 22.0524 -2.60274 0.0252139
head 13.7151 -1.2778 -0.282669
rclavicle -8.11041e-014 -7.11649e-014
rhumerus 62.6124 12.2606 -71.2007
rradius 28.0057
rwrist -29.837
rhand -15.3156 -40.4533
rfingers 7.12502
rthumb 10.8604 -70.1524
lclavicle -8.11041e-014 -7.11649e-014
lhumerus 65.1546 -29.9354 51.2244
lradius 34.3728
lwrist 41.0893
lhand -41.376 -11.4114
lfingers 7.12502
lthumb -14.294 18.0766
rfemur -112.334 -9.20013 24.0229
rtibia 108.531
rfoot -23.9976 3.73357
rtoes 6.53419
lfemur -87.9852 41.021 -15.0756
ltibia 99.9389
lfoot -27.7335 -4.5817
ltoes -21.6789
729
root 12.8461 11.1254 -2.22836 -135.822 -66.7581 167.704
lowerback 44.4501 4.56795 -3.19634
upperback 10.2255 2.31006 0.255244
thorax -9.35652 0.365626 1.01259
lowerneck -38.2862 -2.30657 -1.56259
upperneck 21.6872 -2.25221 -0.334387
head 13.5128 -1.17271 -0.375759
rclavicle 5.80451e-014 8.80616e-014
rhumerus 62.3948 12.6522 -70.6036
rradius 28.5289
rwrist -30.2144
rhand -16.9748 -38.0286
rfingers 7.12502
rthumb 9.25967 -67.8052
lclavicle 5.80451e-014 8.80616e-014
lhumerus 65.3946 -29.16 52.7708
lradius 33.0375
lwrist 39.5503
lhand -41.1079 -10.5901
lfingers 7.12502
lthumb -14.0356 18.916
rfemur -112.7 -9.31386 24.3308
rtibia 109.325
rfoot -24.1848 3.60105
rtoes 7.74825
lfemur -88.0354 41.1789 -14.9093
ltibia 99.9518
lfoot -27.4739 -4.70415
ltoes -21.994
